<svg id="visual" viewBox="0 0 900 600" width="900" height="600" xmlns="http://www.w3.org/2000/svg" xmlns:xlink="http://www.w3.org/1999/xlink" version="1.1"><rect x="0" y="0" width="900" height="600" fill="#00121f"></rect><g fill="none" stroke="#135c7e" stroke-width="4"><path d="M0 -122.7L27.5 -37.9L116.7 -37.9L44.6 14.5L72.1 99.3L0 46.9L-72.1 99.3L-44.6 14.5L-116.7 -37.9L-27.5 -37.9Z" transform="translate(7 311)"></path><path d="M0 -46.2L10.4 -14.3L44 -14.3L16.8 5.5L27.2 37.4L0 17.7L-27.2 37.4L-16.8 5.5L-44 -14.3L-10.4 -14.3Z" transform="translate(548 221)"></path><path d="M0 -68L15.3 -21L64.6 -21L24.7 8L39.9 55L0 26L-39.9 55L-24.7 8L-64.6 -21L-15.3 -21Z" transform="translate(291 428)"></path><path d="M0 -55.7L12.5 -17.2L53 -17.2L20.2 6.6L32.7 45.1L0 21.3L-32.7 45.1L-20.2 6.6L-53 -17.2L-12.5 -17.2Z" transform="translate(888 293)"></path><path d="M0 -49.1L11 -15.2L46.7 -15.2L17.8 5.8L28.8 39.7L0 18.7L-28.8 39.7L-17.8 5.8L-46.7 -15.2L-11 -15.2Z" transform="translate(791 576)"></path><path d="M0 -116.1L26.1 -35.9L110.4 -35.9L42.2 13.7L68.2 93.9L0 44.3L-68.2 93.9L-42.2 13.7L-110.4 -35.9L-26.1 -35.9Z" transform="translate(40 35)"></path><path d="M0 -55.7L12.5 -17.2L53 -17.2L20.2 6.6L32.7 45.1L0 21.3L-32.7 45.1L-20.2 6.6L-53 -17.2L-12.5 -17.2Z" transform="translate(816 2)"></path></g></svg>